<svg id="svg" version="1.1" xmlns="http://www.w3.org/2000/svg" xmlns:xlink="http://www.w3.org/1999/xlink" width="400" height="400" viewBox="0, 0, 400,400"><g id="svgg"><path id="path0" d="M91.800 155.856 C 90.040 157.525,85.830 161.526,82.445 164.746 C 79.060 167.966,75.640 171.207,74.845 171.948 C 74.050 172.690,72.259 174.373,70.864 175.689 L 68.328 178.081 72.266 182.141 C 75.930 185.918,88.092 198.681,91.148 201.956 C 96.573 207.769,105.073 216.695,109.666 221.400 C 112.673 224.480,115.622 227.540,116.219 228.200 C 116.817 228.860,118.936 231.110,120.927 233.200 C 127.576 240.178,140.367 253.735,143.735 257.374 C 144.359 258.048,148.139 261.998,152.135 266.151 C 156.131 270.304,160.300 274.670,161.400 275.854 C 163.849 278.489,164.057 278.492,166.800 275.928 C 181.925 261.792,190.400 253.497,190.385 252.844 C 190.365 252.037,179.896 241.197,179.149 241.209 C 178.847 241.214,176.455 243.284,173.832 245.809 C 171.210 248.334,168.835 250.400,168.553 250.400 C 168.103 250.400,166.060 248.386,159.200 241.182 C 158.210 240.142,153.963 235.716,149.762 231.346 C 140.130 221.326,139.720 220.897,133.200 213.953 C 130.230 210.790,127.080 207.462,126.200 206.558 C 125.320 205.653,123.535 203.763,122.233 202.356 C 119.164 199.043,105.712 184.961,100.712 179.829 C 98.573 177.634,96.736 175.611,96.630 175.334 C 96.523 175.055,98.747 172.642,101.618 169.921 C 104.468 167.221,106.800 164.845,106.800 164.639 C 106.800 164.434,105.199 162.632,103.243 160.633 C 101.287 158.635,98.794 156.055,97.703 154.900 C 95.242 152.294,95.619 152.233,91.800 155.856 M100.647 158.744 C 103.261 161.463,105.555 163.957,105.744 164.287 C 106.004 164.740,104.847 166.082,101.004 169.788 C 97.938 172.745,95.976 174.936,96.060 175.308 C 96.175 175.815,103.122 183.243,112.800 193.206 C 115.903 196.400,127.325 208.463,130.218 211.600 C 132.775 214.373,134.342 216.026,141.265 223.244 C 142.659 224.698,146.702 228.928,150.249 232.644 C 153.795 236.360,157.845 240.587,159.249 242.037 C 160.652 243.488,163.217 246.143,164.949 247.937 C 166.681 249.732,168.253 251.200,168.443 251.200 C 168.872 251.200,175.377 245.365,177.000 243.524 C 177.660 242.775,178.441 242.016,178.735 241.836 C 179.361 241.454,189.549 251.789,189.581 252.839 C 189.604 253.602,188.866 254.368,180.385 262.400 C 176.784 265.810,172.318 270.040,170.460 271.800 C 168.603 273.560,166.506 275.585,165.801 276.300 C 164.068 278.057,164.444 278.275,158.600 272.122 C 150.843 263.956,145.639 258.492,143.400 256.165 C 140.211 252.852,131.372 243.514,130.180 242.200 C 128.871 240.757,117.174 228.454,113.800 224.971 C 112.480 223.608,108.430 219.376,104.800 215.567 C 101.170 211.757,97.390 207.805,96.400 206.783 C 95.410 205.762,93.340 203.572,91.800 201.916 C 88.082 197.920,77.434 186.718,73.276 182.429 C 71.447 180.543,69.767 178.784,69.542 178.519 C 69.250 178.174,69.466 177.721,70.307 176.919 C 73.445 173.926,78.391 169.245,84.171 163.800 C 87.674 160.500,91.543 156.808,92.770 155.596 C 95.453 152.945,94.833 152.697,100.647 158.744 M307.297 161.081 C 307.069 161.697,306.394 163.640,305.797 165.400 C 301.348 178.527,294.744 190.946,285.368 203.820 C 283.453 206.449,281.773 208.690,281.633 208.800 C 281.494 208.910,280.653 209.927,279.765 211.059 C 264.929 229.963,238.227 250.943,220.200 257.860 C 219.540 258.114,217.799 258.789,216.332 259.360 C 214.864 259.932,213.480 260.400,213.255 260.400 C 211.892 260.400,213.066 261.886,219.019 267.697 C 227.880 276.345,227.608 276.243,234.200 273.397 C 234.860 273.113,236.210 272.605,237.200 272.269 C 242.357 270.519,255.831 263.930,258.673 261.768 C 259.374 261.236,260.037 260.800,260.148 260.800 C 260.259 260.800,261.576 259.962,263.075 258.938 C 292.396 238.903,313.869 209.797,321.779 179.364 C 323.263 173.656,323.294 173.791,319.723 170.573 C 318.031 169.048,314.863 166.090,312.684 164.000 C 308.207 159.705,307.875 159.525,307.297 161.081 M84.102 224.477 C 83.853 224.777,83.462 228.553,83.199 233.203 C 82.596 243.871,82.288 246.913,81.800 247.049 C 81.346 247.175,74.628 237.120,73.349 234.400 C 73.194 234.070,72.595 233.170,72.019 232.400 C 71.442 231.630,70.621 230.324,70.193 229.498 C 68.935 227.067,68.387 227.189,64.902 230.677 C 63.186 232.395,60.661 234.832,59.291 236.094 C 56.519 238.647,56.413 238.893,57.700 239.789 C 59.977 241.375,71.449 249.793,71.851 250.173 C 72.099 250.408,72.710 250.870,73.208 251.200 C 74.269 251.902,76.189 253.591,75.958 253.619 C 75.871 253.630,72.290 253.735,68.000 253.852 C 56.069 254.178,52.762 254.477,52.263 255.271 C 51.893 255.858,53.469 263.602,55.178 269.600 C 55.605 271.099,56.897 271.047,60.337 269.391 C 62.022 268.581,64.120 267.588,65.000 267.186 C 65.880 266.784,68.130 265.745,70.000 264.878 C 74.022 263.012,77.495 261.761,77.801 262.068 C 77.922 262.188,77.386 263.410,76.610 264.782 C 75.835 266.154,75.200 267.343,75.200 267.424 C 75.200 267.505,74.210 269.205,73.000 271.200 C 71.790 273.195,70.800 274.909,70.800 275.007 C 70.800 275.105,70.113 276.314,69.274 277.693 C 66.873 281.638,66.911 282.450,69.528 283.041 C 70.118 283.174,72.310 283.785,74.400 284.398 C 82.601 286.804,82.754 286.833,83.181 286.035 C 83.568 285.312,84.091 280.635,84.816 271.400 C 85.316 265.033,85.519 263.906,86.126 264.109 C 86.509 264.236,89.177 268.410,96.074 279.672 C 98.708 283.974,99.022 284.076,101.698 281.505 C 108.307 275.155,110.800 272.649,110.800 272.355 C 110.800 271.871,106.846 269.008,96.600 262.075 C 92.523 259.317,91.622 258.576,91.606 257.968 C 91.603 257.840,96.865 257.503,103.300 257.218 C 116.563 256.632,116.139 256.749,115.375 253.880 C 115.071 252.736,114.208 249.280,113.458 246.200 C 111.776 239.290,112.380 239.450,103.983 243.689 C 100.362 245.517,96.590 247.362,95.600 247.790 C 94.610 248.218,93.129 248.980,92.308 249.484 C 90.166 250.799,88.774 249.916,90.600 248.400 C 90.930 248.126,91.200 247.674,91.200 247.394 C 91.200 246.824,99.041 231.212,99.625 230.620 C 100.812 229.417,100.026 228.486,97.100 227.627 C 95.505 227.159,92.490 226.245,90.400 225.596 C 85.120 223.956,84.610 223.865,84.102 224.477 M88.054 225.436 C 89.234 225.787,90.791 226.327,91.514 226.636 C 92.236 226.946,93.250 227.200,93.768 227.200 C 94.285 227.200,95.224 227.469,95.854 227.798 C 96.484 228.126,97.383 228.396,97.851 228.398 C 99.444 228.402,99.752 229.373,98.700 231.070 C 96.682 234.325,89.132 249.966,89.383 250.372 C 89.932 251.261,90.486 251.032,103.160 244.698 C 112.348 240.105,111.427 239.857,113.187 247.400 C 113.905 250.480,114.647 253.620,114.836 254.378 C 115.257 256.073,115.837 255.851,110.200 256.153 C 107.560 256.294,103.510 256.582,101.200 256.792 C 98.890 257.001,95.706 257.179,94.124 257.187 C 90.141 257.205,89.820 258.881,93.470 260.602 C 94.312 260.998,95.720 261.886,96.600 262.574 C 97.480 263.262,99.280 264.539,100.600 265.412 C 101.920 266.286,103.060 267.135,103.133 267.300 C 103.207 267.465,103.507 267.600,103.800 267.600 C 104.093 267.600,104.393 267.747,104.467 267.928 C 104.540 268.108,105.714 269.007,107.075 269.926 C 110.596 272.302,110.708 271.924,104.758 277.808 C 99.540 282.969,98.000 283.911,98.000 281.944 C 98.000 281.709,97.460 280.716,96.800 279.738 C 96.140 278.760,95.600 277.789,95.600 277.580 C 95.600 277.371,95.420 277.200,95.200 277.200 C 94.980 277.200,94.800 277.029,94.800 276.820 C 94.800 276.611,94.305 275.666,93.700 274.720 C 92.406 272.696,92.290 272.509,89.367 267.716 C 85.281 261.016,84.734 261.653,83.972 274.000 C 83.505 281.549,83.090 285.443,82.712 285.822 C 82.463 286.070,80.593 285.638,75.600 284.175 C 74.390 283.821,72.680 283.362,71.800 283.156 C 67.542 282.158,67.430 281.949,69.401 278.680 C 70.170 277.404,70.800 276.257,70.800 276.132 C 70.800 276.007,71.412 274.891,72.159 273.652 C 73.721 271.065,74.739 269.261,76.705 265.600 C 77.473 264.170,78.248 262.814,78.428 262.587 C 79.517 261.208,77.238 261.001,74.827 262.259 C 74.262 262.554,73.496 262.796,73.124 262.798 C 72.752 262.799,72.348 262.960,72.227 263.156 C 72.106 263.351,71.541 263.628,70.971 263.772 C 70.400 263.915,69.232 264.475,68.375 265.016 C 67.517 265.557,66.636 266.000,66.416 266.000 C 66.195 266.000,63.996 266.990,61.528 268.200 C 55.732 271.042,55.998 271.076,55.193 267.400 C 55.000 266.520,54.554 264.630,54.201 263.200 C 52.905 257.939,52.516 255.576,52.905 255.335 C 53.471 254.985,63.731 254.447,70.313 254.422 C 78.481 254.391,78.473 254.315,69.600 247.752 C 66.630 245.556,63.300 243.138,62.200 242.379 C 61.100 241.621,60.110 240.910,60.000 240.800 C 59.890 240.690,59.452 240.408,59.027 240.173 C 57.132 239.128,57.296 238.591,60.388 235.729 C 62.009 234.228,64.371 231.965,65.636 230.700 C 68.495 227.841,68.680 227.848,70.400 230.864 C 71.170 232.214,72.009 233.534,72.265 233.796 C 72.521 234.059,73.066 234.887,73.475 235.637 C 74.371 237.277,74.881 238.086,78.698 243.924 C 82.912 250.367,82.888 250.391,83.467 238.995 C 83.842 231.611,84.228 225.655,84.380 224.900 C 84.436 224.620,86.143 224.870,88.054 225.436 M314.400 238.065 C 312.970 238.507,311.080 239.031,310.200 239.231 C 301.759 241.140,301.582 241.312,303.885 245.400 C 304.876 247.160,306.511 250.130,307.517 252.000 C 308.523 253.870,309.668 255.940,310.061 256.600 C 310.792 257.826,311.794 259.902,312.420 261.486 C 313.074 263.142,312.060 262.834,304.119 258.963 C 292.013 253.061,291.322 252.771,290.823 253.372 C 290.296 254.008,289.451 256.734,288.399 261.200 C 287.958 263.070,287.291 265.296,286.917 266.146 C 286.094 268.017,286.758 268.798,289.176 268.803 C 289.959 268.805,291.680 268.973,293.000 269.176 C 294.320 269.380,297.830 269.654,300.800 269.786 C 312.289 270.295,312.699 270.653,306.284 274.571 C 302.118 277.115,297.409 280.266,293.653 283.021 L 291.105 284.890 294.253 287.872 C 295.984 289.512,298.615 292.052,300.100 293.516 C 302.780 296.159,302.805 296.173,303.572 295.389 C 304.256 294.691,311.372 284.086,314.600 278.956 C 316.943 275.232,317.064 275.622,317.649 288.800 C 317.952 295.639,318.237 298.761,318.590 299.134 C 319.371 299.958,333.710 295.783,333.928 294.668 C 333.998 294.309,331.784 289.602,329.008 284.208 C 324.187 274.841,324.005 274.400,324.957 274.400 C 325.504 274.400,326.048 274.553,326.163 274.741 C 326.279 274.928,327.235 275.407,328.287 275.804 C 329.339 276.202,333.688 278.224,337.952 280.297 C 346.980 284.688,346.280 284.781,347.742 279.000 C 348.298 276.800,349.110 273.650,349.545 272.000 C 350.642 267.848,351.084 268.057,340.175 267.568 C 330.031 267.113,327.136 266.808,326.925 266.174 C 326.788 265.765,331.953 261.911,340.800 255.821 C 343.430 254.010,345.045 252.630,345.120 252.127 C 345.270 251.119,334.675 240.720,333.828 241.045 C 333.527 241.160,331.516 244.167,329.360 247.727 C 326.212 252.925,321.743 259.850,320.945 260.767 C 320.578 261.188,320.312 260.268,320.180 258.128 C 320.033 255.743,319.469 250.528,318.782 245.200 C 318.569 243.550,318.396 241.291,318.397 240.180 C 318.400 238.406,317.893 237.137,317.220 237.231 C 317.099 237.247,315.830 237.623,314.400 238.065 M358.400 330.370 C 355.940 330.602,353.998 331.283,354.001 331.914 C 354.008 333.133,355.693 334.800,356.918 334.800 C 359.633 334.800,359.628 334.780,359.508 344.800 L 359.400 353.800 349.600 354.053 C 333.261 354.474,333.052 354.729,333.140 374.200 C 333.226 393.050,332.957 392.800,353.400 393.061 C 368.707 393.256,370.533 393.007,370.724 390.699 C 370.860 389.052,369.984 388.400,367.636 388.400 C 365.118 388.400,365.230 389.792,365.275 358.943 C 365.298 343.526,365.190 330.707,365.035 330.456 C 364.741 329.980,362.814 329.955,358.400 330.370 M46.600 334.811 C 33.555 335.093,31.579 335.262,30.833 336.161 C 30.159 336.973,31.889 338.277,34.565 338.974 C 35.861 339.312,37.029 339.695,37.161 339.827 C 37.697 340.362,37.820 386.974,37.287 387.645 C 36.978 388.035,35.889 388.382,34.539 388.521 C 30.502 388.938,29.183 391.532,32.546 392.441 C 34.776 393.044,48.660 392.743,49.900 392.064 C 51.892 390.974,50.625 388.983,47.695 388.600 C 43.689 388.075,44.000 389.000,44.000 377.609 C 44.000 372.104,44.045 367.591,44.100 367.579 C 44.155 367.568,49.060 367.461,55.000 367.340 C 66.562 367.107,67.200 366.986,67.200 365.027 C 67.200 362.449,66.983 362.400,55.457 362.400 C 47.826 362.400,44.829 362.269,44.480 361.920 C 44.130 361.570,44.000 358.490,44.000 350.567 L 44.000 339.693 44.900 339.452 C 45.395 339.319,50.210 339.211,55.600 339.211 C 67.821 339.211,67.200 339.061,67.200 342.018 C 67.200 345.116,67.767 345.675,70.745 345.519 C 73.428 345.377,73.478 345.265,73.553 339.114 C 73.618 333.726,76.386 334.168,46.600 334.811 M214.960 341.486 C 213.881 342.256,213.600 343.756,213.600 348.755 L 213.600 353.963 210.904 354.082 C 205.831 354.304,205.632 358.261,210.683 358.481 L 213.400 358.600 213.626 372.800 C 213.922 391.405,214.137 391.945,221.601 392.803 C 229.965 393.765,231.772 393.397,232.075 390.673 C 232.300 388.657,232.047 388.549,225.773 387.983 C 222.814 387.716,220.477 387.320,220.313 387.058 C 219.480 385.728,219.200 381.689,219.200 370.994 C 219.200 357.143,218.605 358.400,225.160 358.400 C 229.885 358.400,230.400 358.169,230.400 356.055 C 230.400 354.358,229.425 354.000,224.804 354.000 C 218.725 354.000,219.200 354.527,219.200 347.781 C 219.200 344.627,219.048 341.953,218.862 341.838 C 218.202 341.430,215.393 341.177,214.960 341.486 M126.200 353.998 C 116.040 354.589,114.816 356.676,114.816 373.400 C 114.816 391.554,116.257 393.221,131.935 393.188 C 148.183 393.153,149.159 392.029,149.186 373.320 C 149.213 353.940,147.789 352.743,126.200 353.998 M162.099 353.916 C 158.155 354.055,157.061 354.932,158.001 357.202 C 158.460 358.311,158.650 358.400,160.549 358.406 C 163.860 358.416,163.641 357.381,163.699 373.330 C 163.756 388.990,163.878 388.158,161.531 388.066 C 158.597 387.951,156.985 390.176,158.392 392.400 C 158.962 393.301,174.172 393.199,175.083 392.288 C 176.534 390.837,175.445 388.906,172.887 388.392 C 171.629 388.139,170.353 387.807,170.052 387.655 C 169.415 387.333,169.359 359.287,169.994 358.648 C 170.625 358.013,186.006 358.612,187.656 359.335 C 189.946 360.340,190.081 361.109,190.365 374.800 C 190.652 388.642,190.703 388.400,187.529 388.400 C 184.883 388.400,182.883 391.415,184.760 392.575 C 185.310 392.915,198.408 392.835,200.000 392.482 C 202.967 391.824,201.882 388.881,198.438 388.246 C 196.057 387.807,196.101 388.016,196.300 378.139 C 196.664 360.075,195.411 355.542,189.746 354.429 C 187.821 354.050,168.477 353.692,162.099 353.916 M249.800 353.990 C 239.956 354.692,239.196 356.156,239.209 374.373 C 239.222 392.622,239.750 393.200,256.400 393.200 C 268.931 393.200,271.233 392.190,272.198 386.270 C 272.815 382.487,266.875 382.260,266.139 386.038 C 265.698 388.303,262.956 388.738,253.535 388.038 C 245.298 387.425,245.245 387.380,244.898 380.572 C 244.598 374.688,243.273 375.200,258.797 375.200 L 271.897 375.200 272.154 372.500 C 272.582 368.023,271.816 360.365,270.717 358.117 C 268.827 354.253,262.800 353.064,249.800 353.990 M285.200 353.897 C 281.453 354.085,281.200 354.213,281.200 355.928 C 281.200 357.907,281.765 358.400,284.031 358.400 C 286.921 358.400,286.823 357.840,286.705 373.647 L 286.600 387.800 284.603 387.926 C 281.551 388.118,279.814 391.152,281.808 392.807 C 282.650 393.505,297.298 393.149,298.190 392.408 C 299.928 390.966,298.298 388.626,295.264 388.209 C 292.433 387.819,292.548 388.430,292.465 373.334 C 292.371 356.444,291.290 358.243,301.374 358.511 C 314.067 358.848,313.296 357.832,313.586 374.600 C 313.828 388.606,313.867 388.396,311.038 388.406 C 308.766 388.414,307.429 389.169,307.271 390.533 C 307.022 392.687,307.437 392.804,315.149 392.753 C 324.386 392.691,324.600 392.642,324.600 390.596 L 324.600 389.000 322.000 388.381 L 319.400 387.762 319.169 374.381 C 318.803 353.201,319.710 354.140,299.400 353.918 C 292.800 353.846,286.410 353.837,285.200 353.897 M77.862 354.731 C 77.175 355.490,76.995 357.070,77.506 357.846 C 77.668 358.092,78.835 358.377,80.100 358.479 C 81.364 358.582,82.486 358.753,82.593 358.860 C 83.075 359.341,83.258 387.248,82.784 387.819 C 82.501 388.161,81.599 388.400,80.595 388.400 C 77.312 388.400,75.911 391.378,78.696 392.436 C 80.323 393.055,91.100 393.066,92.900 392.451 C 95.897 391.426,94.764 388.904,91.107 388.457 L 89.000 388.200 89.000 373.400 L 89.000 358.600 94.534 358.669 C 101.092 358.751,101.600 358.989,101.600 361.986 C 101.600 364.790,102.980 365.681,106.662 365.254 C 107.385 365.170,107.717 361.486,107.216 359.127 C 106.194 354.322,105.112 354.000,89.998 354.000 C 79.390 354.000,78.474 354.055,77.862 354.731 M139.946 359.231 C 142.643 360.039,143.607 363.556,143.593 372.529 C 143.569 387.793,142.296 389.152,129.068 388.039 C 120.723 387.337,120.750 387.378,120.504 374.522 C 120.241 360.760,120.708 359.626,127.000 358.777 C 130.089 358.361,137.962 358.637,139.946 359.231 M262.724 359.282 C 265.318 359.840,265.830 360.778,266.318 365.858 C 266.751 370.373,267.457 370.088,255.401 370.281 L 245.226 370.444 244.959 369.378 C 244.128 366.067,245.657 360.640,247.734 359.528 C 249.587 358.537,258.573 358.389,262.724 359.282 M359.360 358.736 C 359.770 359.398,360.018 386.988,359.620 387.600 C 358.780 388.890,342.014 388.200,340.410 386.809 C 338.008 384.726,337.728 363.019,340.070 360.525 C 340.864 359.680,343.096 359.029,346.400 358.677 C 349.296 358.369,359.161 358.413,359.360 358.736 " stroke="none" fill="#a1379e" fill-rule="evenodd"></path><path id="path1" d="M0.000 200.000 L 0.000 400.000 200.000 400.000 L 400.000 400.000 400.000 200.000 L 400.000 0.000 200.000 0.000 L 0.000 0.000 0.000 200.000 M315.577 8.231 C 324.705 10.979,325.799 11.392,325.938 12.147 C 326.015 12.558,323.990 17.074,321.438 22.182 C 315.993 33.086,315.787 33.862,318.730 32.394 C 319.539 31.991,322.540 30.525,325.400 29.137 C 328.260 27.748,332.026 25.844,333.769 24.906 C 338.428 22.398,338.404 22.385,339.778 28.200 C 340.142 29.740,340.711 31.990,341.043 33.200 C 341.375 34.410,341.681 36.199,341.723 37.176 L 341.800 38.952 335.000 39.657 C 331.260 40.044,326.220 40.373,323.800 40.387 C 316.685 40.428,316.743 40.612,325.800 46.749 C 328.660 48.687,332.395 51.221,334.100 52.380 C 338.108 55.104,338.141 54.976,331.942 60.832 C 325.474 66.943,325.848 66.862,323.252 62.719 C 322.108 60.894,320.283 58.050,319.197 56.400 C 318.110 54.750,317.080 53.130,316.908 52.800 C 316.183 51.412,313.575 47.632,313.170 47.381 C 312.272 46.827,311.978 47.992,311.595 53.626 C 311.105 60.834,310.463 67.519,310.147 68.700 C 309.843 69.837,309.425 69.827,305.667 68.592 C 301.010 67.061,299.117 66.491,297.800 66.219 C 294.343 65.508,293.902 64.926,295.149 62.723 C 303.923 47.225,305.324 44.400,304.240 44.400 C 303.956 44.400,294.156 48.977,286.857 52.520 C 283.100 54.343,282.392 54.262,281.926 51.956 C 281.775 51.210,281.349 49.520,280.980 48.200 C 279.745 43.779,279.021 38.819,279.536 38.304 C 279.841 37.999,283.059 37.733,288.900 37.531 C 301.683 37.087,302.119 37.054,302.296 36.519 C 302.453 36.041,294.166 29.688,288.410 25.874 C 282.391 21.886,282.323 22.682,289.264 15.924 C 295.594 9.761,295.190 9.880,297.277 13.547 C 299.061 16.681,304.628 25.431,305.201 26.000 C 305.312 26.110,306.098 27.264,306.949 28.565 C 308.885 31.528,309.018 31.309,309.351 24.600 C 309.874 14.051,310.379 8.307,310.833 7.761 C 311.449 7.018,311.600 7.033,315.577 8.231 M92.567 12.643 C 93.068 12.835,93.199 13.521,93.195 15.943 C 93.189 20.097,94.413 35.724,94.775 36.113 C 95.083 36.445,95.316 36.117,103.294 24.095 C 109.128 15.305,108.385 15.638,112.554 19.941 C 120.086 27.714,120.644 28.596,118.619 29.519 C 117.311 30.114,110.235 34.761,106.000 37.804 C 104.130 39.148,102.310 40.356,101.956 40.490 C 100.240 41.135,100.822 42.347,102.944 42.549 C 110.689 43.285,120.092 44.020,121.651 44.011 C 123.954 43.997,124.776 44.751,124.013 46.176 C 123.734 46.698,122.748 49.887,121.823 53.262 C 120.440 58.307,120.004 59.420,119.370 59.515 C 118.664 59.620,100.699 50.859,99.821 49.981 C 99.347 49.507,98.000 49.479,98.000 49.943 C 98.000 50.132,99.806 54.047,102.014 58.643 C 107.624 70.325,107.540 70.108,106.810 70.988 C 106.559 71.290,105.599 71.663,104.677 71.816 C 103.755 71.969,101.650 72.452,100.000 72.890 C 90.244 75.477,91.288 76.694,91.102 62.518 C 91.029 56.973,90.837 52.304,90.675 52.142 C 90.161 51.627,87.260 55.431,79.122 67.294 C 76.209 71.540,76.621 71.629,70.520 65.429 C 64.323 59.130,64.412 59.410,67.900 57.202 C 71.130 55.157,72.036 54.575,78.000 50.712 C 80.530 49.073,83.005 47.516,83.500 47.252 C 85.337 46.272,84.648 45.200,82.181 45.200 C 80.152 45.200,74.851 44.689,65.400 43.582 C 60.612 43.022,60.652 43.088,61.987 38.000 C 63.985 30.387,64.382 29.088,64.997 28.149 L 65.605 27.221 70.303 29.661 C 77.940 33.629,82.900 36.243,84.512 37.150 C 86.536 38.288,86.947 38.241,86.614 36.914 C 86.336 35.806,78.947 20.816,77.566 18.559 C 76.463 16.754,77.217 16.266,83.421 14.770 C 87.504 13.785,91.108 12.788,91.867 12.432 C 91.904 12.414,92.219 12.509,92.567 12.643 M229.538 32.245 C 235.501 33.944,240.606 38.098,247.904 47.185 C 262.896 65.855,264.916 66.968,273.520 61.294 C 276.178 59.541,275.969 59.437,281.539 65.278 C 286.452 70.429,286.496 70.531,284.855 72.928 C 279.188 81.202,280.451 84.173,295.000 96.797 C 311.653 111.247,315.094 118.474,310.523 129.400 C 307.793 135.927,296.410 148.229,295.533 145.600 C 295.460 145.381,293.592 143.356,291.382 141.100 C 289.171 138.845,286.874 136.399,286.277 135.664 L 285.190 134.327 286.495 132.731 C 292.602 125.260,292.020 123.373,280.364 112.836 C 267.255 100.985,263.800 96.261,263.800 90.187 C 263.800 86.550,263.869 86.278,266.055 81.304 C 267.286 78.504,267.022 78.224,264.536 79.691 C 257.436 83.880,248.583 81.280,241.302 72.868 C 240.036 71.405,238.820 70.005,238.600 69.757 C 238.151 69.251,238.128 69.224,232.600 62.603 C 224.184 52.524,220.828 51.376,214.695 56.473 C 212.242 58.511,212.669 58.732,206.206 52.075 L 200.648 46.351 203.356 43.798 C 213.922 33.838,222.245 30.165,229.538 32.245 M158.302 53.566 C 162.099 62.495,165.474 70.367,165.802 71.060 C 166.131 71.754,166.400 72.424,166.400 72.550 C 166.400 72.675,166.841 73.728,167.380 74.889 C 167.918 76.050,169.020 78.616,169.827 80.591 C 170.634 82.566,171.733 85.176,172.270 86.391 C 172.806 87.606,173.403 88.960,173.596 89.400 C 173.977 90.272,174.004 90.334,177.593 98.800 C 178.946 101.990,180.378 105.320,180.775 106.200 C 181.173 107.080,182.450 110.050,183.613 112.800 C 184.776 115.550,185.878 117.971,186.064 118.180 C 187.149 119.406,186.298 120.665,180.001 127.150 L 173.640 133.700 169.340 132.014 C 166.976 131.086,163.502 129.789,161.620 129.131 C 159.739 128.473,157.840 127.788,157.400 127.609 C 156.960 127.430,154.980 126.708,153.000 126.004 C 151.020 125.301,147.510 124.039,145.200 123.200 C 142.890 122.360,138.660 120.837,135.800 119.814 C 132.940 118.791,129.970 117.708,129.200 117.407 C 127.673 116.810,124.197 115.565,118.600 113.608 C 116.620 112.917,114.370 112.104,113.600 111.803 C 111.781 111.092,104.381 108.414,99.800 106.808 C 97.820 106.114,95.840 105.384,95.400 105.187 C 94.960 104.989,93.253 104.367,91.606 103.805 C 86.911 102.202,86.902 102.399,91.916 97.161 C 94.317 94.652,96.771 92.060,97.368 91.400 C 101.947 86.342,101.465 86.546,105.000 88.174 C 105.660 88.478,106.920 88.997,107.800 89.327 C 109.364 89.915,114.797 92.069,120.800 94.482 C 123.999 95.768,124.403 95.934,127.200 97.118 C 128.190 97.537,131.610 98.917,134.800 100.185 C 137.990 101.452,140.960 102.637,141.400 102.817 C 141.840 102.998,142.830 103.405,143.600 103.723 C 149.099 105.987,151.581 106.978,155.800 108.595 C 158.440 109.607,160.960 110.590,161.400 110.781 C 164.391 112.077,164.477 111.512,162.068 106.377 C 160.991 104.079,159.653 101.210,159.094 100.000 C 158.103 97.853,156.627 94.683,153.600 88.200 C 152.778 86.440,151.698 84.100,151.198 83.000 C 150.699 81.900,149.505 79.318,148.545 77.263 C 147.585 75.208,146.800 73.473,146.800 73.408 C 146.800 73.344,145.973 71.515,144.963 69.345 C 143.952 67.175,142.670 64.410,142.113 63.200 C 141.556 61.990,140.043 58.803,138.750 56.117 C 135.799 49.986,135.668 50.754,140.533 45.696 C 142.806 43.333,145.908 40.077,147.425 38.461 C 150.837 34.825,149.609 33.120,158.302 53.566 M97.703 154.900 C 98.794 156.055,101.287 158.635,103.243 160.633 C 105.199 162.632,106.800 164.434,106.800 164.639 C 106.800 164.845,104.468 167.221,101.618 169.921 C 98.747 172.642,96.523 175.055,96.630 175.334 C 96.736 175.611,98.573 177.634,100.712 179.829 C 105.712 184.961,119.164 199.043,122.233 202.356 C 123.535 203.763,125.320 205.653,126.200 206.558 C 127.080 207.462,130.230 210.790,133.200 213.953 C 139.720 220.897,140.130 221.326,149.762 231.346 C 153.963 235.716,158.210 240.142,159.200 241.182 C 166.060 248.386,168.103 250.400,168.553 250.400 C 168.835 250.400,171.210 248.334,173.832 245.809 C 176.455 243.284,178.847 241.214,179.149 241.209 C 179.896 241.197,190.365 252.037,190.385 252.844 C 190.400 253.497,181.925 261.792,166.800 275.928 C 164.057 278.492,163.849 278.489,161.400 275.854 C 160.300 274.670,156.131 270.304,152.135 266.151 C 148.139 261.998,144.359 258.048,143.735 257.374 C 140.367 253.735,127.576 240.178,120.927 233.200 C 118.936 231.110,116.817 228.860,116.219 228.200 C 115.622 227.540,112.673 224.480,109.666 221.400 C 105.073 216.695,96.573 207.769,91.148 201.956 C 88.092 198.681,75.930 185.918,72.266 182.141 L 68.328 178.081 70.864 175.689 C 72.259 174.373,74.050 172.690,74.845 171.948 C 75.640 171.207,79.060 167.966,82.445 164.746 C 97.246 150.667,95.046 152.087,97.703 154.900 M314.046 165.262 C 316.991 168.047,320.165 170.994,321.100 171.811 C 322.306 172.865,322.800 173.607,322.800 174.366 C 322.800 176.467,319.657 187.401,317.616 192.400 C 317.122 193.610,316.577 194.960,316.405 195.400 C 312.723 204.816,300.939 223.820,294.702 230.400 C 294.180 230.950,292.666 232.660,291.337 234.200 C 283.485 243.297,272.380 252.848,260.800 260.463 C 254.574 264.558,247.013 268.456,239.600 271.395 C 238.610 271.788,237.233 272.354,236.540 272.654 C 235.846 272.954,235.079 273.200,234.834 273.200 C 234.589 273.200,234.077 273.367,233.695 273.571 C 232.512 274.203,228.904 275.200,227.800 275.200 C 227.012 275.200,225.732 274.212,222.675 271.244 C 220.434 269.068,217.184 265.935,215.454 264.281 C 212.646 261.596,211.968 260.400,213.255 260.400 C 213.480 260.400,214.864 259.937,216.332 259.371 C 238.107 250.975,260.397 234.177,278.400 212.593 C 280.049 210.617,281.489 208.910,281.601 208.800 C 283.921 206.517,293.170 192.491,297.295 185.000 C 298.363 183.061,302.000 175.562,302.002 175.295 C 302.004 175.133,302.244 174.542,302.536 173.982 C 302.828 173.422,303.929 170.542,304.983 167.582 C 306.036 164.622,307.081 161.697,307.305 161.081 C 307.881 159.500,308.086 159.627,314.046 165.262 M90.400 225.596 C 92.490 226.245,95.505 227.159,97.100 227.627 C 100.026 228.486,100.812 229.417,99.625 230.620 C 99.041 231.212,91.200 246.824,91.200 247.394 C 91.200 247.674,90.930 248.126,90.600 248.400 C 88.774 249.916,90.166 250.799,92.308 249.484 C 93.129 248.980,94.610 248.218,95.600 247.790 C 96.590 247.362,100.362 245.517,103.983 243.689 C 112.380 239.450,111.776 239.290,113.458 246.200 C 114.208 249.280,115.071 252.736,115.375 253.880 C 116.139 256.749,116.563 256.632,103.300 257.218 C 96.865 257.503,91.603 257.840,91.606 257.968 C 91.622 258.576,92.523 259.317,96.600 262.075 C 106.846 269.008,110.800 271.871,110.800 272.355 C 110.800 272.649,108.307 275.155,101.698 281.505 C 99.022 284.076,98.708 283.974,96.074 279.672 C 89.177 268.410,86.509 264.236,86.126 264.109 C 85.519 263.906,85.316 265.033,84.816 271.400 C 84.091 280.635,83.568 285.312,83.181 286.035 C 82.754 286.833,82.601 286.804,74.400 284.398 C 72.310 283.785,70.118 283.174,69.528 283.041 C 66.911 282.450,66.873 281.638,69.274 277.693 C 70.113 276.314,70.800 275.105,70.800 275.007 C 70.800 274.909,71.790 273.195,73.000 271.200 C 74.210 269.205,75.200 267.505,75.200 267.424 C 75.200 267.343,75.835 266.154,76.610 264.782 C 77.386 263.410,77.922 262.188,77.801 262.068 C 77.495 261.761,74.022 263.012,70.000 264.878 C 68.130 265.745,65.880 266.784,65.000 267.186 C 64.120 267.588,62.022 268.581,60.337 269.391 C 56.897 271.047,55.605 271.099,55.178 269.600 C 53.469 263.602,51.893 255.858,52.263 255.271 C 52.762 254.477,56.069 254.178,68.000 253.852 C 72.290 253.735,75.871 253.630,75.958 253.619 C 76.189 253.591,74.269 251.902,73.208 251.200 C 72.710 250.870,72.099 250.408,71.851 250.173 C 71.449 249.793,59.977 241.375,57.700 239.789 C 56.413 238.893,56.519 238.647,59.291 236.094 C 60.661 234.832,63.186 232.395,64.902 230.677 C 68.387 227.189,68.935 227.067,70.193 229.498 C 70.621 230.324,71.442 231.630,72.019 232.400 C 72.595 233.170,73.194 234.070,73.349 234.400 C 74.628 237.120,81.346 247.175,81.800 247.049 C 82.288 246.913,82.596 243.871,83.199 233.203 C 83.791 222.742,83.205 223.361,90.400 225.596 M317.920 237.680 C 318.184 237.944,318.400 239.060,318.400 240.159 C 318.400 242.136,318.691 244.839,319.826 253.400 C 320.147 255.820,320.407 258.475,320.405 259.300 C 320.402 260.125,320.535 260.799,320.700 260.799 C 321.087 260.797,325.750 253.725,329.980 246.726 C 331.799 243.715,333.532 241.158,333.829 241.044 C 334.371 240.836,344.464 250.224,345.223 251.643 C 345.641 252.424,345.062 252.922,338.269 257.630 C 330.344 263.122,327.000 265.633,327.000 266.092 C 327.000 266.793,329.588 267.082,340.177 267.564 C 351.083 268.061,350.641 267.851,349.545 272.000 C 349.110 273.650,348.298 276.800,347.742 279.000 C 346.284 284.765,346.899 284.657,338.549 280.601 C 334.617 278.692,330.320 276.678,329.000 276.128 C 327.680 275.577,326.429 274.962,326.220 274.763 C 326.011 274.563,325.425 274.400,324.918 274.400 C 324.067 274.400,324.380 275.149,328.998 284.157 C 334.402 294.697,334.515 295.024,332.963 295.614 C 328.982 297.128,319.092 299.609,318.616 299.213 C 318.226 298.890,318.020 296.690,317.833 290.887 C 317.405 277.522,316.636 274.464,314.741 278.584 C 313.859 280.502,304.254 294.891,303.361 295.632 C 302.857 296.050,302.420 295.803,300.679 294.114 C 299.536 293.003,296.917 290.472,294.859 288.487 L 291.119 284.880 293.659 283.016 C 296.941 280.609,301.767 277.352,305.800 274.822 C 307.560 273.718,309.434 272.473,309.965 272.056 L 310.931 271.298 310.014 270.807 C 309.509 270.537,306.465 270.163,303.248 269.974 C 287.138 269.032,285.790 268.711,286.942 266.091 C 287.302 265.271,287.958 263.070,288.399 261.200 C 290.378 252.803,290.544 252.553,293.322 253.785 C 296.120 255.024,307.719 260.579,310.151 261.844 C 311.282 262.432,312.251 262.709,312.456 262.504 C 312.859 262.101,309.315 255.026,303.887 245.400 C 301.582 241.312,301.758 241.140,310.200 239.231 C 311.080 239.031,312.970 238.507,314.400 238.065 C 317.598 237.076,317.344 237.104,317.920 237.680 M365.035 330.456 C 365.190 330.707,365.298 343.526,365.275 358.943 C 365.230 389.792,365.118 388.400,367.636 388.400 C 369.984 388.400,370.860 389.052,370.724 390.699 C 370.534 392.997,368.712 393.246,353.400 393.067 C 332.976 392.828,333.226 393.061,333.140 374.200 C 333.052 354.729,333.261 354.474,349.600 354.053 L 359.400 353.800 359.508 344.800 C 359.628 334.780,359.633 334.800,356.918 334.800 C 355.693 334.800,354.008 333.133,354.001 331.914 C 353.995 330.642,364.307 329.279,365.035 330.456 M72.826 334.814 C 73.515 335.183,73.595 335.654,73.553 339.114 C 73.478 345.265,73.428 345.377,70.745 345.519 C 67.767 345.675,67.200 345.116,67.200 342.018 C 67.200 339.061,67.821 339.211,55.600 339.211 C 50.210 339.211,45.395 339.319,44.900 339.452 L 44.000 339.693 44.000 350.567 C 44.000 358.490,44.130 361.570,44.480 361.920 C 44.829 362.269,47.826 362.400,55.457 362.400 C 66.983 362.400,67.200 362.449,67.200 365.027 C 67.200 366.986,66.562 367.107,55.000 367.340 C 49.060 367.461,44.155 367.568,44.100 367.579 C 44.045 367.591,44.000 372.094,44.000 377.586 C 44.000 388.540,43.967 388.396,46.474 388.402 C 49.478 388.409,51.825 390.335,50.475 391.685 C 49.384 392.776,35.775 393.309,32.379 392.394 C 29.172 391.531,30.625 388.925,34.539 388.521 C 35.889 388.382,36.978 388.035,37.287 387.645 C 37.820 386.974,37.697 340.362,37.161 339.827 C 37.029 339.695,35.861 339.312,34.565 338.974 C 31.889 338.277,30.159 336.973,30.833 336.161 C 31.579 335.262,33.555 335.093,46.600 334.811 C 67.176 334.367,71.991 334.367,72.826 334.814 M218.862 341.838 C 219.048 341.953,219.200 344.627,219.200 347.781 C 219.200 354.527,218.725 354.000,224.804 354.000 C 229.425 354.000,230.400 354.358,230.400 356.055 C 230.400 358.169,229.885 358.400,225.160 358.400 C 218.605 358.400,219.200 357.143,219.200 370.994 C 219.200 381.689,219.480 385.728,220.313 387.058 C 220.477 387.320,222.814 387.716,225.773 387.983 C 232.047 388.549,232.300 388.657,232.075 390.673 C 231.805 393.101,231.590 393.201,226.651 393.194 C 214.301 393.176,213.967 392.652,213.636 372.800 L 213.400 358.600 210.683 358.481 C 205.632 358.261,205.831 354.304,210.904 354.082 L 213.600 353.963 213.600 348.755 C 213.600 341.681,215.201 339.576,218.862 341.838 M143.613 354.605 C 148.360 356.279,149.206 359.121,149.186 373.320 C 149.159 391.909,148.080 393.200,132.562 393.200 C 116.152 393.200,114.816 391.709,114.816 373.400 C 114.816 356.676,116.040 354.589,126.200 353.998 C 133.316 353.585,141.533 353.871,143.613 354.605 M189.746 354.429 C 195.411 355.542,196.664 360.075,196.300 378.139 C 196.101 388.016,196.057 387.807,198.438 388.246 C 200.744 388.672,201.664 389.470,201.524 390.925 C 201.357 392.646,198.495 393.135,190.400 392.823 L 184.600 392.600 184.471 391.016 C 184.312 389.062,185.061 388.400,187.432 388.400 C 190.719 388.400,190.654 388.701,190.365 374.800 C 190.081 361.109,189.946 360.340,187.656 359.335 C 186.004 358.611,170.626 358.014,169.990 358.650 C 169.362 359.278,169.430 387.344,170.061 387.661 C 170.357 387.810,171.629 388.139,172.887 388.392 C 175.419 388.901,176.534 390.838,175.113 392.259 C 174.184 393.187,159.532 393.475,158.638 392.581 C 156.727 390.670,158.472 387.946,161.531 388.066 C 163.878 388.158,163.756 388.990,163.699 373.330 C 163.641 357.381,163.860 358.416,160.549 358.406 C 158.650 358.400,158.460 358.311,158.001 357.202 C 157.061 354.932,158.155 354.055,162.099 353.916 C 168.477 353.692,187.821 354.050,189.746 354.429 M267.590 355.123 C 271.272 356.934,273.009 363.548,272.154 372.500 L 271.897 375.200 258.797 375.200 C 243.273 375.200,244.598 374.688,244.898 380.572 C 245.245 387.380,245.298 387.425,253.535 388.038 C 262.956 388.738,265.698 388.303,266.139 386.038 C 266.540 383.983,267.052 383.600,269.400 383.600 C 271.965 383.600,272.543 384.152,272.198 386.270 C 271.209 392.341,269.320 393.209,257.142 393.186 C 239.533 393.153,239.222 392.826,239.209 374.373 C 239.194 354.055,240.042 353.211,259.800 353.861 C 264.865 354.028,265.609 354.149,267.590 355.123 M313.323 354.470 C 318.423 355.586,318.870 357.109,319.169 374.381 L 319.400 387.762 322.000 388.381 L 324.600 389.000 324.600 390.584 C 324.600 392.650,323.964 392.797,315.035 392.793 C 307.764 392.791,307.200 392.647,307.200 390.800 C 307.200 389.286,308.072 388.693,310.606 388.483 C 313.951 388.205,313.831 388.768,313.586 374.600 C 313.296 357.832,314.067 358.848,301.374 358.511 C 291.290 358.243,292.371 356.444,292.465 373.334 C 292.548 388.430,292.433 387.819,295.264 388.209 C 298.199 388.612,299.625 390.478,298.434 392.359 C 297.935 393.147,282.712 393.557,281.808 392.806 C 279.814 391.152,281.552 388.118,284.603 387.926 L 286.600 387.800 286.705 373.647 C 286.823 357.840,286.921 358.400,284.031 358.400 C 281.245 358.400,279.577 354.783,282.100 354.211 C 284.715 353.619,310.406 353.832,313.323 354.470 M103.342 354.563 C 106.471 355.504,108.007 358.786,107.396 363.227 C 107.105 365.348,107.101 365.350,104.400 365.223 C 102.183 365.118,101.600 364.445,101.600 361.986 C 101.600 358.989,101.092 358.751,94.534 358.669 L 89.000 358.600 89.000 373.400 L 89.000 388.200 91.107 388.457 C 94.767 388.904,95.888 391.411,92.900 392.469 C 91.143 393.091,80.324 393.055,78.658 392.422 C 75.908 391.377,77.342 388.400,80.595 388.400 C 81.599 388.400,82.501 388.161,82.784 387.819 C 83.258 387.248,83.075 359.341,82.593 358.860 C 82.486 358.753,81.364 358.582,80.100 358.479 C 77.653 358.281,77.216 357.971,77.206 356.431 C 77.191 354.045,77.427 354.000,89.998 354.000 C 98.705 354.000,101.924 354.136,103.342 354.563 M127.000 358.777 C 120.708 359.626,120.241 360.760,120.504 374.522 C 120.750 387.378,120.723 387.337,129.068 388.039 C 136.644 388.677,141.024 387.985,142.058 385.987 C 144.050 382.134,144.085 364.099,142.106 360.748 C 141.025 358.919,133.362 357.919,127.000 358.777 M251.999 358.819 C 248.058 359.105,247.188 359.477,246.014 361.377 C 245.090 362.873,244.482 367.479,244.959 369.378 L 245.226 370.444 255.401 370.281 C 267.457 370.088,266.751 370.373,266.318 365.858 C 265.660 359.003,263.575 357.978,251.999 358.819 M346.400 358.677 C 343.096 359.029,340.864 359.680,340.070 360.525 C 337.728 363.019,338.008 384.726,340.410 386.809 C 342.014 388.200,358.780 388.890,359.620 387.600 C 360.018 386.988,359.770 359.398,359.360 358.736 C 359.161 358.413,349.296 358.369,346.400 358.677 " stroke="none" fill="#fbfbfb" fill-rule="evenodd"></path><path id="path2" d="M310.823 8.056 C 310.454 8.929,309.528 21.198,309.378 27.200 C 309.342 28.630,309.288 30.025,309.257 30.300 C 309.115 31.553,307.981 30.502,305.589 26.900 C 304.165 24.755,302.902 22.910,302.782 22.800 C 302.663 22.690,301.149 20.260,299.418 17.400 C 295.697 11.250,295.281 10.715,294.540 11.130 C 293.161 11.901,283.985 21.429,284.091 21.979 C 284.156 22.315,285.557 23.541,287.205 24.703 C 288.852 25.864,291.347 27.667,292.748 28.707 C 294.150 29.748,296.670 31.558,298.348 32.730 C 304.926 37.320,305.704 37.021,285.190 37.785 C 280.486 37.960,279.200 38.192,279.200 38.866 C 279.200 40.050,280.166 45.059,280.456 45.380 C 280.645 45.589,280.800 46.078,280.800 46.466 C 280.800 46.854,281.051 47.943,281.358 48.886 C 281.666 49.829,282.031 51.258,282.169 52.061 C 282.537 54.191,283.164 54.184,287.494 52.005 C 299.988 45.719,304.800 43.757,304.800 44.949 C 304.800 45.695,301.274 52.702,300.126 54.238 C 299.617 54.919,299.200 55.615,299.200 55.785 C 299.200 55.956,298.588 57.109,297.840 58.348 C 293.691 65.218,293.696 65.368,298.083 66.162 C 298.899 66.309,301.769 67.145,304.459 68.019 C 307.150 68.893,309.492 69.468,309.664 69.296 C 310.188 68.772,310.764 63.793,311.222 55.820 C 311.851 44.866,311.868 44.855,316.631 52.100 C 318.547 55.015,320.598 58.120,321.188 59.000 C 321.778 59.880,322.924 61.706,323.734 63.059 C 325.943 66.744,325.243 67.052,334.100 58.506 C 337.520 55.206,337.510 54.886,333.900 52.477 C 332.305 51.412,328.750 49.048,326.000 47.222 C 317.474 41.562,316.684 40.408,321.324 40.387 C 322.906 40.379,326.090 40.186,328.400 39.958 C 330.710 39.729,334.580 39.420,337.000 39.271 L 341.400 39.000 341.525 37.480 C 341.594 36.643,341.388 35.113,341.068 34.080 C 340.747 33.046,340.079 30.443,339.584 28.296 C 338.177 22.201,338.738 22.277,330.200 27.026 C 328.440 28.005,326.640 28.964,326.200 29.158 C 325.760 29.351,323.575 30.392,321.345 31.470 C 314.978 34.547,314.979 34.625,321.235 22.094 C 326.726 11.096,326.663 11.588,322.734 10.492 C 321.120 10.042,318.180 9.187,316.200 8.591 C 314.220 7.996,312.290 7.420,311.911 7.311 C 311.455 7.179,311.088 7.431,310.823 8.056 M221.400 32.348 C 216.339 33.806,211.890 36.523,205.566 42.019 C 202.421 44.752,201.198 45.958,201.206 46.318 C 201.212 46.628,212.254 58.000,212.549 58.000 C 212.649 58.000,213.512 57.285,214.466 56.411 C 220.851 50.561,224.038 51.965,235.473 65.671 C 244.635 76.653,248.412 79.909,253.498 81.213 C 256.237 81.914,261.893 81.130,264.088 79.744 C 265.567 78.810,266.452 78.585,266.895 79.028 C 267.021 79.154,266.395 80.999,265.504 83.128 C 262.439 90.454,263.240 94.430,269.187 101.416 C 271.707 104.376,272.975 105.624,283.235 115.250 C 292.026 123.496,292.524 125.788,286.969 132.437 C 285.237 134.510,285.198 134.437,291.445 140.949 C 297.190 146.939,296.322 146.766,300.229 142.697 C 317.213 125.008,316.271 115.413,295.819 97.795 C 280.488 84.588,279.052 81.707,283.930 73.946 C 284.810 72.546,285.591 71.111,285.665 70.758 C 285.857 69.842,276.194 59.835,275.515 60.247 C 275.232 60.418,273.938 61.242,272.641 62.078 C 265.169 66.888,262.466 65.435,249.803 49.800 C 236.996 33.987,230.203 29.813,221.400 32.348 " stroke="none" fill="#5cc33c" fill-rule="evenodd"></path><path id="path3" d="M92.770 155.596 C 91.543 156.808,87.674 160.500,84.171 163.800 C 78.391 169.245,73.445 173.926,70.307 176.919 C 69.466 177.721,69.250 178.174,69.542 178.519 C 69.767 178.784,71.447 180.543,73.276 182.429 C 77.434 186.718,88.082 197.920,91.800 201.916 C 93.340 203.572,95.410 205.762,96.400 206.783 C 97.390 207.805,101.170 211.757,104.800 215.567 C 108.430 219.376,112.480 223.608,113.800 224.971 C 117.174 228.454,128.871 240.757,130.180 242.200 C 131.372 243.514,140.211 252.852,143.400 256.165 C 145.639 258.492,150.843 263.956,158.600 272.122 C 164.444 278.275,164.068 278.057,165.801 276.300 C 166.506 275.585,168.603 273.560,170.460 271.800 C 172.318 270.040,176.784 265.810,180.385 262.400 C 188.866 254.368,189.604 253.602,189.581 252.839 C 189.549 251.789,179.361 241.454,178.735 241.836 C 178.441 242.016,177.660 242.775,177.000 243.524 C 175.377 245.365,168.872 251.200,168.443 251.200 C 168.253 251.200,166.681 249.732,164.949 247.937 C 163.217 246.143,160.652 243.488,159.249 242.037 C 157.845 240.587,153.795 236.360,150.249 232.644 C 146.702 228.928,142.659 224.698,141.265 223.244 C 134.342 216.026,132.775 214.373,130.218 211.600 C 127.325 208.463,115.903 196.400,112.800 193.206 C 103.122 183.243,96.175 175.815,96.060 175.308 C 95.976 174.936,97.938 172.745,101.004 169.788 C 104.847 166.082,106.004 164.740,105.744 164.287 C 105.279 163.477,96.009 153.853,95.447 153.596 C 95.201 153.484,93.996 154.384,92.770 155.596 M84.380 224.900 C 84.228 225.655,83.842 231.611,83.467 238.995 C 82.888 250.391,82.912 250.367,78.698 243.924 C 74.881 238.086,74.371 237.277,73.475 235.637 C 73.066 234.887,72.521 234.059,72.265 233.796 C 72.009 233.534,71.170 232.214,70.400 230.864 C 68.680 227.848,68.495 227.841,65.636 230.700 C 64.371 231.965,62.009 234.228,60.388 235.729 C 57.296 238.591,57.132 239.128,59.027 240.173 C 59.452 240.408,59.890 240.690,60.000 240.800 C 60.110 240.910,61.100 241.621,62.200 242.379 C 63.300 243.138,66.630 245.556,69.600 247.752 C 78.473 254.315,78.481 254.391,70.313 254.422 C 63.731 254.447,53.471 254.985,52.905 255.335 C 52.516 255.576,52.905 257.939,54.201 263.200 C 54.554 264.630,55.000 266.520,55.193 267.400 C 55.998 271.076,55.732 271.042,61.528 268.200 C 63.996 266.990,66.195 266.000,66.416 266.000 C 66.636 266.000,67.517 265.557,68.375 265.016 C 69.232 264.475,70.400 263.915,70.971 263.772 C 71.541 263.628,72.106 263.351,72.227 263.156 C 72.348 262.960,72.752 262.799,73.124 262.798 C 73.496 262.796,74.262 262.554,74.827 262.259 C 77.238 261.001,79.517 261.208,78.428 262.587 C 78.248 262.814,77.473 264.170,76.705 265.600 C 74.739 269.261,73.721 271.065,72.159 273.652 C 71.412 274.891,70.800 276.007,70.800 276.132 C 70.800 276.257,70.170 277.404,69.401 278.680 C 67.430 281.949,67.542 282.158,71.800 283.156 C 72.680 283.362,74.390 283.821,75.600 284.175 C 80.593 285.638,82.463 286.070,82.712 285.822 C 83.090 285.443,83.505 281.549,83.972 274.000 C 84.734 261.653,85.281 261.016,89.367 267.716 C 92.290 272.509,92.406 272.696,93.700 274.720 C 94.305 275.666,94.800 276.611,94.800 276.820 C 94.800 277.029,94.980 277.200,95.200 277.200 C 95.420 277.200,95.600 277.371,95.600 277.580 C 95.600 277.789,96.140 278.760,96.800 279.738 C 97.460 280.716,98.000 281.709,98.000 281.944 C 98.000 283.911,99.540 282.969,104.758 277.808 C 110.708 271.924,110.596 272.302,107.075 269.926 C 105.714 269.007,104.540 268.108,104.467 267.928 C 104.393 267.747,104.093 267.600,103.800 267.600 C 103.507 267.600,103.207 267.465,103.133 267.300 C 103.060 267.135,101.920 266.286,100.600 265.412 C 99.280 264.539,97.480 263.262,96.600 262.574 C 95.720 261.886,94.312 260.998,93.470 260.602 C 89.820 258.881,90.141 257.205,94.124 257.187 C 95.706 257.179,98.890 257.001,101.200 256.792 C 103.510 256.582,107.560 256.294,110.200 256.153 C 115.837 255.851,115.257 256.073,114.836 254.378 C 114.647 253.620,113.905 250.480,113.187 247.400 C 111.427 239.857,112.348 240.105,103.160 244.698 C 90.486 251.032,89.932 251.261,89.383 250.372 C 89.132 249.966,96.682 234.325,98.700 231.070 C 99.752 229.373,99.444 228.402,97.851 228.398 C 97.383 228.396,96.484 228.126,95.854 227.798 C 95.224 227.469,94.285 227.200,93.768 227.200 C 93.250 227.200,92.236 226.946,91.514 226.636 C 88.817 225.480,84.476 224.423,84.380 224.900 " stroke="none" fill="#a81d26" fill-rule="evenodd"></path><path id="path4" d="M310.109 12.000 C 310.109 12.990,310.187 13.395,310.282 12.900 C 310.378 12.405,310.378 11.595,310.282 11.100 C 310.187 10.605,310.109 11.010,310.109 12.000 M90.200 12.992 C 89.320 13.283,86.270 14.083,83.421 14.770 C 77.217 16.266,76.463 16.754,77.566 18.559 C 78.947 20.816,86.336 35.806,86.614 36.914 C 86.947 38.241,86.536 38.288,84.512 37.150 C 82.900 36.243,77.940 33.629,70.303 29.661 L 65.605 27.221 64.997 28.149 C 64.382 29.088,63.985 30.387,61.987 38.000 C 60.652 43.088,60.612 43.022,65.400 43.582 C 74.851 44.689,80.152 45.200,82.181 45.200 C 84.648 45.200,85.337 46.272,83.500 47.252 C 83.005 47.516,80.530 49.073,78.000 50.712 C 72.036 54.575,71.130 55.157,67.900 57.202 C 64.412 59.410,64.323 59.130,70.520 65.429 C 76.621 71.629,76.209 71.540,79.122 67.294 C 87.260 55.431,90.161 51.627,90.675 52.142 C 90.837 52.304,91.029 56.973,91.102 62.518 C 91.288 76.694,90.244 75.477,100.000 72.890 C 101.650 72.452,103.755 71.969,104.677 71.816 C 105.599 71.663,106.559 71.290,106.810 70.988 C 107.540 70.108,107.624 70.325,102.014 58.643 C 99.806 54.047,98.000 50.132,98.000 49.943 C 98.000 49.479,99.347 49.507,99.821 49.981 C 100.699 50.859,118.664 59.620,119.370 59.515 C 120.004 59.420,120.440 58.307,121.823 53.262 C 122.748 49.887,123.734 46.698,124.013 46.176 C 124.776 44.751,123.954 43.997,121.651 44.011 C 120.092 44.020,110.689 43.285,102.944 42.549 C 100.822 42.347,100.240 41.135,101.956 40.490 C 102.310 40.356,104.130 39.148,106.000 37.804 C 110.235 34.761,117.311 30.114,118.619 29.519 C 120.644 28.596,120.086 27.714,112.554 19.941 C 108.385 15.638,109.128 15.305,103.294 24.095 C 95.316 36.117,95.083 36.445,94.775 36.113 C 94.413 35.724,93.189 20.097,93.195 15.943 C 93.200 13.189,92.755 12.015,91.867 12.432 C 91.830 12.449,91.080 12.701,90.200 12.992 M309.724 19.400 C 309.726 20.720,309.801 21.212,309.890 20.493 C 309.979 19.774,309.977 18.694,309.886 18.093 C 309.795 17.492,309.722 18.080,309.724 19.400 M283.600 21.886 C 283.600 22.270,284.917 23.541,286.019 24.219 C 286.359 24.429,286.269 24.276,285.819 23.881 C 285.368 23.485,284.685 22.790,284.300 22.336 C 283.915 21.883,283.600 21.680,283.600 21.886 M309.246 28.867 C 309.221 29.234,309.096 29.864,308.970 30.267 C 308.752 30.962,308.763 30.963,309.197 30.287 C 309.448 29.896,309.573 29.266,309.473 28.887 C 309.311 28.268,309.288 28.266,309.246 28.867 M321.600 31.000 C 321.050 31.314,320.780 31.572,321.000 31.572 C 321.220 31.572,321.850 31.314,322.400 31.000 C 322.950 30.686,323.220 30.428,323.000 30.428 C 322.780 30.428,322.150 30.686,321.600 31.000 M316.425 32.257 C 316.393 33.348,317.214 33.672,318.193 32.956 C 318.611 32.650,318.775 32.400,318.556 32.400 C 318.338 32.400,317.949 32.611,317.692 32.868 C 317.335 33.225,317.133 33.107,316.838 32.368 C 316.473 31.456,316.449 31.450,316.425 32.257 M147.425 38.461 C 145.908 40.077,142.806 43.333,140.533 45.696 C 135.668 50.754,135.799 49.986,138.750 56.117 C 140.043 58.803,141.556 61.990,142.113 63.200 C 142.670 64.410,143.952 67.175,144.963 69.345 C 145.973 71.515,146.800 73.344,146.800 73.408 C 146.800 73.473,147.585 75.208,148.545 77.263 C 149.505 79.318,150.699 81.900,151.198 83.000 C 151.698 84.100,152.778 86.440,153.600 88.200 C 156.627 94.683,158.103 97.853,159.094 100.000 C 159.653 101.210,160.991 104.079,162.068 106.377 C 164.477 111.512,164.391 112.077,161.400 110.781 C 160.960 110.590,158.440 109.607,155.800 108.595 C 151.581 106.978,149.099 105.987,143.600 103.723 C 142.830 103.405,141.840 102.998,141.400 102.817 C 140.960 102.637,137.990 101.452,134.800 100.185 C 131.610 98.917,128.190 97.537,127.200 97.118 C 124.403 95.934,123.999 95.768,120.800 94.482 C 114.797 92.069,109.364 89.915,107.800 89.327 C 106.920 88.997,105.660 88.478,105.000 88.174 C 101.465 86.546,101.947 86.342,97.368 91.400 C 96.771 92.060,94.317 94.652,91.916 97.161 C 86.902 102.399,86.911 102.202,91.606 103.805 C 93.253 104.367,94.960 104.989,95.400 105.187 C 95.840 105.384,97.820 106.114,99.800 106.808 C 104.381 108.414,111.781 111.092,113.600 111.803 C 114.370 112.104,116.620 112.917,118.600 113.608 C 124.197 115.565,127.673 116.810,129.200 117.407 C 129.970 117.708,132.940 118.791,135.800 119.814 C 138.660 120.837,142.890 122.360,145.200 123.200 C 147.510 124.039,151.020 125.301,153.000 126.004 C 154.980 126.708,156.960 127.430,157.400 127.609 C 157.840 127.788,159.739 128.473,161.620 129.131 C 163.502 129.789,166.976 131.086,169.340 132.014 L 173.640 133.700 180.001 127.150 C 186.298 120.665,187.149 119.406,186.064 118.180 C 185.878 117.971,184.776 115.550,183.613 112.800 C 182.450 110.050,181.173 107.080,180.775 106.200 C 180.378 105.320,178.946 101.990,177.593 98.800 C 174.004 90.334,173.977 90.272,173.596 89.400 C 173.403 88.960,172.806 87.606,172.270 86.391 C 171.733 85.176,170.634 82.566,169.827 80.591 C 169.020 78.616,167.918 76.050,167.380 74.889 C 166.841 73.728,166.400 72.675,166.400 72.550 C 166.400 72.424,166.131 71.754,165.802 71.060 C 165.474 70.367,162.099 62.495,158.302 53.566 C 149.609 33.120,150.837 34.825,147.425 38.461 M341.552 37.913 C 341.421 38.707,341.479 39.081,341.701 38.859 C 341.903 38.657,342.001 38.067,341.919 37.546 C 341.793 36.745,341.737 36.802,341.552 37.913 M293.705 37.487 C 294.314 37.579,295.214 37.577,295.705 37.482 C 296.197 37.387,295.700 37.311,294.600 37.314 C 293.500 37.317,293.097 37.395,293.705 37.487 M334.700 39.482 C 335.195 39.578,336.005 39.578,336.500 39.482 C 336.995 39.387,336.590 39.309,335.600 39.309 C 334.610 39.309,334.205 39.387,334.700 39.482 M331.300 39.876 C 331.685 39.976,332.315 39.976,332.700 39.876 C 333.085 39.775,332.770 39.693,332.000 39.693 C 331.230 39.693,330.915 39.775,331.300 39.876 M326.500 40.287 C 327.105 40.378,328.095 40.378,328.700 40.287 C 329.305 40.195,328.810 40.120,327.600 40.120 C 326.390 40.120,325.895 40.195,326.500 40.287 M319.744 42.709 C 320.060 43.221,322.400 44.953,322.400 44.675 C 322.400 44.576,321.739 43.991,320.932 43.375 C 320.124 42.759,319.589 42.459,319.744 42.709 M205.200 51.000 C 206.617 52.430,207.867 53.600,207.977 53.600 C 208.087 53.600,207.017 52.430,205.600 51.000 C 204.183 49.570,202.933 48.400,202.823 48.400 C 202.713 48.400,203.783 49.570,205.200 51.000 M311.309 54.000 C 311.309 54.990,311.387 55.395,311.482 54.900 C 311.578 54.405,311.578 53.595,311.482 53.100 C 311.387 52.605,311.309 53.010,311.309 54.000 M221.251 53.607 C 222.270 53.779,223.485 54.124,223.951 54.374 C 224.418 54.624,224.800 54.723,224.800 54.594 C 224.800 54.126,221.993 53.201,220.713 53.247 C 219.594 53.287,219.674 53.340,221.251 53.607 M336.685 54.802 C 336.800 55.243,336.648 55.918,336.347 56.302 C 335.852 56.934,335.866 56.948,336.500 56.451 C 337.246 55.866,337.439 54.595,336.837 54.223 C 336.638 54.100,336.569 54.360,336.685 54.802 M210.888 57.013 C 211.486 57.643,212.047 58.077,212.135 57.979 C 212.223 57.880,211.733 57.365,211.047 56.834 L 209.800 55.869 210.888 57.013 M334.175 58.500 L 333.000 59.800 334.300 58.625 C 335.015 57.979,335.600 57.394,335.600 57.325 C 335.600 57.016,335.270 57.288,334.175 58.500 M232.400 62.525 C 232.400 62.594,232.985 63.179,233.700 63.825 L 235.000 65.000 233.825 63.700 C 232.730 62.488,232.400 62.216,232.400 62.525 M282.000 66.200 C 283.860 68.070,285.472 69.600,285.582 69.600 C 285.692 69.600,284.260 68.070,282.400 66.200 C 280.540 64.330,278.928 62.800,278.818 62.800 C 278.708 62.800,280.140 64.330,282.000 66.200 M265.300 64.676 C 265.685 64.776,266.315 64.776,266.700 64.676 C 267.085 64.575,266.770 64.493,266.000 64.493 C 265.230 64.493,264.915 64.575,265.300 64.676 M242.783 74.500 C 243.764 75.545,244.619 76.400,244.683 76.400 C 244.984 76.400,244.666 76.041,242.900 74.383 L 241.000 72.600 242.783 74.500 M281.268 80.200 C 281.262 80.640,281.411 81.360,281.600 81.800 C 282.038 82.819,282.038 81.768,281.600 80.400 C 281.343 79.596,281.277 79.557,281.268 80.200 M282.000 83.341 C 282.000 83.724,283.965 86.800,284.210 86.800 C 284.320 86.800,283.934 86.035,283.351 85.100 C 282.126 83.134,282.000 82.969,282.000 83.341 M290.400 92.925 C 290.400 92.994,290.985 93.579,291.700 94.225 L 293.000 95.400 291.825 94.100 C 290.730 92.888,290.400 92.616,290.400 92.925 M296.400 98.125 C 296.400 98.194,296.985 98.779,297.700 99.425 L 299.000 100.600 297.825 99.300 C 296.730 98.088,296.400 97.816,296.400 98.125 M269.895 102.600 C 271.236 104.140,273.201 106.210,274.260 107.200 C 275.320 108.190,274.761 107.470,273.018 105.600 C 268.377 100.621,267.116 99.410,269.895 102.600 M303.200 104.600 C 304.617 106.030,305.867 107.200,305.977 107.200 C 306.087 107.200,305.017 106.030,303.600 104.600 C 302.183 103.170,300.933 102.000,300.823 102.000 C 300.713 102.000,301.783 103.170,303.200 104.600 M278.800 111.400 C 279.546 112.170,280.247 112.800,280.357 112.800 C 280.467 112.800,279.946 112.170,279.200 111.400 C 278.454 110.630,277.753 110.000,277.643 110.000 C 277.533 110.000,278.054 110.630,278.800 111.400 M312.120 121.600 C 312.120 122.810,312.195 123.305,312.287 122.700 C 312.378 122.095,312.378 121.105,312.287 120.500 C 312.195 119.895,312.120 120.390,312.120 121.600 M287.200 136.925 C 287.200 136.994,287.785 137.579,288.500 138.225 L 289.800 139.400 288.625 138.100 C 287.530 136.888,287.200 136.616,287.200 136.925 M291.200 140.925 C 291.200 140.994,291.785 141.579,292.500 142.225 L 293.800 143.400 292.625 142.100 C 291.530 140.888,291.200 140.616,291.200 140.925 M299.588 143.500 L 297.000 146.200 299.700 143.612 C 301.185 142.188,302.400 140.973,302.400 140.912 C 302.400 140.617,301.993 140.992,299.588 143.500 M270.181 221.700 L 268.600 223.400 270.300 221.819 C 271.881 220.348,272.184 220.000,271.881 220.000 C 271.816 220.000,271.051 220.765,270.181 221.700 M263.375 228.500 L 262.200 229.800 263.500 228.625 C 264.215 227.979,264.800 227.394,264.800 227.325 C 264.800 227.016,264.470 227.288,263.375 228.500 M263.300 393.076 C 263.685 393.176,264.315 393.176,264.700 393.076 C 265.085 392.975,264.770 392.893,264.000 392.893 C 263.230 392.893,262.915 392.975,263.300 393.076 " stroke="none" fill="#5697ad" fill-rule="evenodd"></path></g></svg>